<?xml version="1.0" encoding="utf-8"?>
<!-- Generator: Adobe Illustrator 28.2.0, SVG Export Plug-In . SVG Version: 6.00 Build 0)  -->
<svg version="1.1" id="Layer_1" xmlns="http://www.w3.org/2000/svg" xmlns:xlink="http://www.w3.org/1999/xlink" x="0px" y="0px"
	 viewBox="0 0 193.5 144.4" style="enable-background:new 0 0 193.5 144.4;" xml:space="preserve">
<style type="text/css">
	.st0{fill:#FFFFFF;}
</style>
<g>
	<g>
		<g>
			<path class="st0" d="M157.7,49.5c-0.6-4.9-0.7-13.3,3.8-16.1c0.1-0.1,0.1-0.1,0.2-0.2c3.7-1.2,6.3-2.8,4.3-5.1l-54.6-16.5
				L22.9,23.9c0,0-10.1,1.4-9.2,17.2c0.5,8.6,3.2,12.8,5.5,14.8l-7.3,2.2c-2,2.2,0.5,3.9,4.3,5.1c0.1,0.1,0.1,0.1,0.2,0.2
				c4.5,2.8,4.4,11.2,3.8,16.1C3.9,84.1,9.7,85.6,9.7,85.6l3.6,0.9c-2.5,2.3-5,6.6-4.5,14.7C9.7,117,18,118,18,118l57.9,18.8
				l87.4-21.2c0,0,5.8-1.5-10.4-6.1c-0.7-4.9-0.7-13.3,3.8-16.1c0.1-0.1,0.1-0.1,0.2-0.2c3.7-1.2,6.3-2.8,4.3-5.1l-3.8-1.1
				c2.5-1.5,6.3-5.5,6.9-15.9c0.4-7.1-1.4-11.3-3.6-13.8l7.5-1.8C168.1,55.6,173.9,54.1,157.7,49.5z M84.6,49.3l14.7-3L148.9,36
				l7.4-1.5c-2.4,4.3-2.3,10.2-1.9,14c0.1,0.9,0.2,1.6,0.3,2.2l-8.1,2L84,68.4L84.6,49.3z M21.5,64.6l7.4,1.5l47.7,9.8l4.2,0.9l0,0
				l0,0l12.5,2.6l0.6,19.2l-64.4-16l-6.3-1.6c0.1-0.6,0.2-1.4,0.3-2.2C23.8,74.8,23.9,68.9,21.5,64.6z M18.6,40.4
				c-0.1-4.2,0.7-7.2,2.2-8.8c1-1,2.1-1.2,2.9-1.2c0.4,0,0.7,0.1,0.7,0.1l38.1,12.4l19,6.2l-0.6,19.3l-53.3-15l-2.8-0.8
				c-0.1,0-0.2,0-0.4-0.1C24.2,52.6,18.9,52.1,18.6,40.4z M76,128.5l-56.1-15.7c-0.1,0-0.2-0.1-0.4-0.1c-0.2,0-5.5-0.5-5.8-12.2
				c-0.1-4.2,0.7-7.2,2.2-8.8c1-1,2.1-1.2,2.9-1.2c0.4,0,0.7,0.1,0.7,0.1c0,0,0,0,0,0l57.1,18.6L76,128.5z M149.6,108.7
				c0.1,0.9,0.2,1.6,0.3,2.2l-70.8,17.6l0.6-19.2l15.1-3.1l2.2,0.5l8.4-2.7l38.6-7.9l7.4-1.5C149.1,99,149.2,104.9,149.6,108.7z
				 M153.5,82.6c-0.1,0-0.3,0-0.4,0.1l-5.3,1.5L97,98.4l-0.6-19.3l16.7-5.4l40.4-13.2c0,0,2.1-0.5,3.7,1.1c1.5,1.5,2.3,4.6,2.2,8.8
				C158.9,82.1,153.7,82.6,153.5,82.6z"/>
		</g>
	</g>
	<g>
		<path class="st0" d="M189.3,117.4c0,5.6-4.4,10-10.1,10c-5.6,0-10.1-4.4-10.1-10c0-5.5,4.5-9.8,10.1-9.8
			C184.9,107.6,189.3,112,189.3,117.4z M171.6,117.4c0,4.4,3.2,7.9,7.7,7.9c4.3,0,7.5-3.5,7.5-7.8c0-4.4-3.2-7.9-7.6-7.9
			S171.6,113.1,171.6,117.4z M177.7,122.6h-2.3v-9.8c0.9-0.2,2.2-0.3,3.8-0.3c1.9,0,2.7,0.3,3.4,0.7c0.5,0.4,1,1.2,1,2.2
			c0,1.1-0.8,1.9-2,2.3v0.1c1,0.4,1.5,1.1,1.8,2.4c0.3,1.5,0.5,2.1,0.7,2.5h-2.5c-0.3-0.4-0.5-1.3-0.8-2.4c-0.2-1.1-0.8-1.6-2-1.6
			h-1.1V122.6z M177.7,117h1.1c1.3,0,2.3-0.4,2.3-1.4c0-0.9-0.7-1.5-2.1-1.5c-0.6,0-1,0.1-1.3,0.1V117z"/>
	</g>
</g>
</svg>
