<?xml version="1.0" encoding="utf-8"?>
<!-- Generator: Adobe Illustrator 28.2.0, SVG Export Plug-In . SVG Version: 6.00 Build 0)  -->
<svg version="1.1" id="Layer_1" xmlns="http://www.w3.org/2000/svg" xmlns:xlink="http://www.w3.org/1999/xlink" x="0px" y="0px"
	 viewBox="0 0 953.1 144.4" style="enable-background:new 0 0 953.1 144.4;" xml:space="preserve">
<style type="text/css">
	.st0{fill:#FFFFFF;}
</style>
<g>
	<g>
		<g>
			<path class="st0" d="M157.7,49.5c-0.6-4.9-0.7-13.3,3.8-16.1c0.1-0.1,0.1-0.1,0.2-0.2c3.7-1.2,6.3-2.8,4.3-5.1l-54.6-16.5
				L22.9,23.9c0,0-10.1,1.4-9.2,17.2c0.5,8.6,3.2,12.8,5.5,14.8l-7.3,2.2c-2,2.2,0.5,3.9,4.3,5.1c0.1,0.1,0.1,0.1,0.2,0.2
				c4.5,2.8,4.4,11.2,3.8,16.1C3.9,84.1,9.7,85.6,9.7,85.6l3.6,0.9c-2.5,2.3-5,6.6-4.5,14.7C9.7,117,18,118,18,118l57.9,18.8
				l87.4-21.2c0,0,5.8-1.5-10.4-6.1c-0.7-4.9-0.7-13.3,3.8-16.1c0.1-0.1,0.1-0.1,0.2-0.2c3.7-1.2,6.3-2.8,4.3-5.1l-3.8-1.1
				c2.5-1.5,6.3-5.5,6.9-15.9c0.4-7.1-1.4-11.3-3.6-13.8l7.5-1.8C168.1,55.6,173.9,54.1,157.7,49.5z M84.6,49.3l14.7-3L148.9,36
				l7.4-1.5c-2.4,4.3-2.3,10.2-1.9,14c0.1,0.9,0.2,1.6,0.3,2.2l-8.1,2L84,68.4L84.6,49.3z M21.5,64.6l7.4,1.5l47.7,9.8l4.2,0.9l0,0
				l0,0l12.5,2.6l0.6,19.2l-64.4-16l-6.3-1.6c0.1-0.6,0.2-1.4,0.3-2.2C23.8,74.8,23.9,68.9,21.5,64.6z M18.6,40.4
				c-0.1-4.2,0.7-7.2,2.2-8.8c1-1,2.1-1.2,2.9-1.2c0.4,0,0.7,0.1,0.7,0.1l38.1,12.4l19,6.2l-0.6,19.3l-53.3-15l-2.8-0.8
				c-0.1,0-0.2,0-0.4-0.1C24.2,52.6,18.9,52.1,18.6,40.4z M76,128.5l-56.1-15.7c-0.1,0-0.2-0.1-0.4-0.1c-0.2,0-5.5-0.5-5.8-12.2
				c-0.1-4.2,0.7-7.2,2.2-8.8c1-1,2.1-1.2,2.9-1.2c0.4,0,0.7,0.1,0.7,0.1c0,0,0,0,0,0l57.1,18.6L76,128.5z M149.6,108.7
				c0.1,0.9,0.2,1.6,0.3,2.2l-70.8,17.6l0.6-19.2l15.1-3.1l2.2,0.5l8.4-2.7l38.6-7.9l7.4-1.5C149.1,99,149.2,104.9,149.6,108.7z
				 M153.5,82.6c-0.1,0-0.3,0-0.4,0.1l-5.3,1.5L97,98.4l-0.6-19.3l16.7-5.4l40.4-13.2c0,0,2.1-0.5,3.7,1.1c1.5,1.5,2.3,4.6,2.2,8.8
				C158.9,82.1,153.7,82.6,153.5,82.6z"/>
		</g>
	</g>
	<path class="st0" d="M190.2,27.9h34.4c4.1,0,8,0.8,11.6,2.3c3.6,1.5,6.7,3.5,9.4,5.9c2.7,2.4,4.8,5.3,6.3,8.9s2.3,7.4,2.3,11.5
		c0,3.9-0.6,7.5-1.9,10.8c-1.3,3.3-3.1,6.3-5.3,8.9c2.3,2.6,4,5.5,5.3,8.9c1.3,3.3,1.9,6.9,1.9,10.6c0,4.1-0.8,8.2-2.3,12.2
		c-1.5,4-3.7,7.4-6.3,10c-2.7,2.7-5.8,4.8-9.4,6.4c-3.6,1.6-7.5,2.4-11.6,2.4h-34.4h-0.8c-3.2-0.2-5.7-1.2-7.6-2.9
		c-2-2.1-2.9-4.5-2.9-7.4V38.1c0-1.5,0.4-3,1.2-4.3c0.5-1,1.2-2,2-2.8c1.7-1.9,3.9-2.9,6.3-3.1C188.8,27.9,189.3,27.9,190.2,27.9z
		 M224.6,66.5c2.6,0,4.8-0.9,6.6-2.8c1.9-1.9,2.8-4.1,2.8-6.8c0-2.6-0.9-4.8-2.8-6.6c-1.9-1.8-4.1-2.7-6.6-2.7h-25.3v18.8H224.6z
		 M224.6,106.1c2.6,0,4.8-0.9,6.6-2.7c1.9-1.8,2.8-4.5,2.8-8.2c0-3.7-0.9-6.4-2.8-8.2c-1.9-1.8-4.1-2.7-6.6-2.7h-25.3v21.9H224.6z"
		/>
	<path class="st0" d="M294.6,51.8c5,0,9.8,1,14.3,2.9c4.5,2,8.5,4.6,11.9,8c3.4,3.4,6.1,7.4,8.1,11.9c2,4.5,3,9.4,3,14.6
		c0,5.1-1,9.9-2.9,14.4c-2,4.5-4.6,8.4-7.9,11.8c-3.3,3.4-7.3,6.1-11.8,8c-4.5,2-9.4,2.9-14.6,2.9c-5.1,0-10-0.9-14.5-2.8
		c-4.5-1.9-8.5-4.4-11.9-7.8c-3.4-3.3-6.1-7.3-8-11.8c-2-4.5-2.9-9.5-2.9-14.8c0-5.1,0.9-9.9,2.9-14.4c1.9-4.5,4.5-8.4,7.9-11.7
		c3.3-3.3,7.3-6,11.9-8C284.5,53.1,289.4,52,294.6,51.8z M294.6,72c-2.4,0-4.6,0.4-6.6,1.3c-2.1,0.9-3.9,2.1-5.5,3.6
		c-1.6,1.5-2.9,3.4-3.8,5.5c-0.9,2.1-1.4,4.4-1.4,6.9c0,2.4,0.5,4.6,1.4,6.7c0.9,2.1,2.2,4,3.8,5.6c1.6,1.6,3.4,2.9,5.5,3.8
		c2.1,0.9,4.3,1.4,6.6,1.4c2.4,0,4.6-0.5,6.7-1.4c2.1-0.9,3.9-2.2,5.5-3.8c1.5-1.6,2.8-3.4,3.7-5.6c0.9-2.1,1.4-4.3,1.4-6.7
		c-0.2-4.7-1.9-8.7-5.1-12C303.6,74,299.6,72.2,294.6,72z"/>
	<path class="st0" d="M371.7,51.8c5,0,9.8,1,14.3,2.9c4.5,2,8.5,4.6,11.9,8c3.4,3.4,6.1,7.4,8.1,11.9c2,4.5,3,9.4,3,14.6
		c0,5.1-1,9.9-2.9,14.4c-2,4.5-4.6,8.4-7.9,11.8c-3.3,3.4-7.3,6.1-11.8,8c-4.5,2-9.4,2.9-14.6,2.9c-5.1,0-10-0.9-14.5-2.8
		c-4.5-1.9-8.5-4.4-11.9-7.8c-3.4-3.3-6.1-7.3-8-11.8c-2-4.5-2.9-9.5-2.9-14.8c0-5.1,0.9-9.9,2.9-14.4c1.9-4.5,4.5-8.4,7.9-11.7
		c3.3-3.3,7.3-6,11.9-8C361.5,53.1,366.4,52,371.7,51.8z M371.7,72c-2.4,0-4.6,0.4-6.6,1.3c-2.1,0.9-3.9,2.1-5.5,3.6
		c-1.6,1.5-2.9,3.4-3.8,5.5c-0.9,2.1-1.4,4.4-1.4,6.9c0,2.4,0.5,4.6,1.4,6.7c0.9,2.1,2.2,4,3.8,5.6c1.6,1.6,3.4,2.9,5.5,3.8
		c2.1,0.9,4.3,1.4,6.6,1.4c2.4,0,4.6-0.5,6.7-1.4c2.1-0.9,3.9-2.2,5.5-3.8c1.5-1.6,2.8-3.4,3.7-5.6c0.9-2.1,1.4-4.3,1.4-6.7
		c-0.2-4.7-1.9-8.7-5.1-12C380.7,74,376.6,72.2,371.7,72z"/>
	<path class="st0" d="M471.8,109c2.1,2.1,3.1,4.5,3.1,7.3c0,2.8-1,5.3-3.1,7.3c-2.1,1.9-4.5,2.9-7.2,3c-2.8,0.2-5.2-0.8-7.4-3
		l-23.3-23.1v15.7c0,2.7-1,5.1-3.1,7.2c-2.1,2.1-4.5,3.2-7.2,3.2c-2.7,0-5.1-1-7.2-3s-3.2-4.4-3.2-7.3V38.4c0-2.7,1-5.1,3.1-7.2
		c2.1-2.1,4.5-3.2,7.4-3.2c2.9,0,5.3,1,7.3,3c2,2,3,4.4,3,7.3v38.7l23.3-23.3c2.1-2.1,4.5-3.1,7.2-3c2.8,0.1,5.2,1.1,7.4,3
		c2.1,2.1,3.1,4.5,3.1,7.3c0,2.8-1,5.3-3.1,7.3l-20.4,20.4L471.8,109z"/>
	<path class="st0" d="M524.3,52c3.1,0,6.1,0.5,9,1.5c2.9,1,5.6,2.5,8.1,4.5c4.9-4,10.7-6,17.3-6c3.6,0,7.1,0.7,10.4,2.1
		c3.3,1.4,6.3,3.3,8.8,5.6c2.5,2.4,4.5,5.2,6,8.5c1.5,3.3,2.2,6.8,2.2,10.5v38.7c0,2.5-1,4.6-3.1,6.5c-2.1,1.9-4.4,2.8-7.1,2.8
		c-2.7,0-5-1-7-3s-3-4.3-3-7V79.1c0-2-0.7-3.6-2.1-4.9c-1.4-1.3-3.1-2-5.2-2c-1.7,0-3.4,0.6-4.9,1.8c-1.5,1.2-2.2,2.9-2.2,5.2v37.5
		c0,2.8-1,5.1-3,7.1c-2,2-4.4,2.9-7.2,2.9c-2.6,0-4.9-0.9-6.9-2.7c-2.1-1.8-3.1-4-3.1-6.6V79.1c-0.1-2.1-0.9-3.7-2.3-5
		c-1.4-1.3-3-1.9-4.8-1.9c-2,0-3.6,0.7-5,2c-1.4,1.3-2.1,3-2.2,5.1v38.2c-0.2,2.5-1.3,4.6-3.2,6.4c-1.9,1.8-4.2,2.7-6.9,2.7
		c-1.4,0-2.8-0.3-4-0.8c-1.2-0.5-2.3-1.2-3.2-2.2c-0.9-0.9-1.7-2-2.2-3.2c-0.6-1.2-0.8-2.5-0.7-3.9V78.7c0-3.6,0.7-7,2.2-10.3
		c1.4-3.2,3.4-6.1,5.9-8.5c2.5-2.4,5.4-4.3,8.7-5.8C516.9,52.7,520.5,52,524.3,52z"/>
	<path class="st0" d="M632.7,52.1c4.6,0.5,9,1.9,13,4c4.1,2.2,7.6,4.9,10.5,8.2c2.9,3.3,5.2,7.1,6.9,11.4c1.7,4.3,2.5,8.8,2.5,13.5
		v27.3c0,2.8-1,5.1-3.1,7.1c-2.1,2-4.4,2.9-6.9,2.9c-3.6,0-6.5-1.6-8.6-4.9c-0.5,0.2-1,0.4-1.4,0.7c-0.4,0.3-0.8,0.5-1.2,0.7
		c-2.5,1.1-5,2-7.6,2.6c-2.7,0.6-5.5,0.9-8.5,0.9c-7.7,0-14.6-2.1-20.7-6.2c-6.1-4.2-10.6-9.5-13.6-16.1c-1-2.4-1.8-4.8-2.4-7.2
		c-0.6-2.5-0.8-5-0.8-7.7c0-2.7,0.3-5.2,0.8-7.7c0.6-2.5,1.4-4.9,2.4-7.2c3-6.7,7.5-12.1,13.6-16.2c6.1-4.1,13-6.2,20.7-6.2
		c0.8,0,1.6,0,2.2,0C631.3,52,632,52,632.7,52.1z M628.2,106.6c2.4,0,4.6-0.4,6.7-1.3c2.1-0.9,3.9-2.1,5.5-3.6s2.8-3.4,3.7-5.5
		c0.9-2.1,1.4-4.4,1.4-6.9c0-2.3-0.5-4.4-1.4-6.6c-0.9-2.1-2.2-4-3.8-5.6c-1.6-1.6-3.4-2.9-5.6-3.8c-2.1-0.9-4.3-1.4-6.6-1.4
		c-2.3,0-4.4,0.5-6.5,1.4c-2.1,0.9-3.9,2.2-5.5,3.8c-1.6,1.6-2.9,3.4-3.8,5.6c-0.9,2.1-1.4,4.3-1.4,6.6c0,2.4,0.5,4.6,1.5,6.7
		c1,2.1,2.3,3.9,3.9,5.5c1.6,1.5,3.4,2.8,5.5,3.7C624,106.1,626.1,106.6,628.2,106.6z"/>
	<path class="st0" d="M709.1,51.5c4.9,0,9.7,0.9,14.2,2.7c4.5,1.8,8.5,4.3,11.9,7.6c3.4,3.2,6.1,7.1,8.2,11.5
		c2.1,4.4,3.1,9.2,3.1,14.3v28.5c0,2.7-1,5-2.9,6.9c-1.9,2-4.2,3-7,3.1c-2.8,0-5.2-0.9-7.2-2.7c-2-1.8-3-4.1-3-6.9V88.8
		c0-2.4-0.4-4.6-1.3-6.7c-0.9-2.1-2.1-3.9-3.7-5.5c-1.6-1.5-3.4-2.8-5.6-3.7c-2.1-0.9-4.4-1.4-6.9-1.4c-2.3,0-4.4,0.4-6.5,1.3
		c-2.1,0.9-3.9,2-5.4,3.5c-1.5,1.4-2.8,3.2-3.7,5.2c-0.9,2.1-1.4,4.2-1.4,6.5v28.1c0,2.7-1,5-3.1,7c-2.1,2-4.4,3-7.1,3
		c-2.7,0-5-0.9-7.1-2.8c-2.1-1.9-3.1-4.1-3.1-6.8V88.8c0.1-5.1,1.1-10,3-14.5c1.9-4.5,4.5-8.5,7.9-11.9c3.3-3.4,7.3-6.1,11.8-8
		C698.8,52.5,703.8,51.5,709.1,51.5z"/>
	<path class="st0" d="M763.3,28.8c2.7,0,5,1,6.9,3c1.9,2,2.9,4.3,2.9,7c0,2.7-1,5-2.9,7c-1.9,2-4.2,3-6.9,3c-3-0.1-5.4-1.1-7.3-2.9
		c-1.9-1.8-2.9-4.3-2.9-7.6c0.1-2.7,1.2-4.9,3.2-6.8C758.3,29.8,760.7,28.8,763.3,28.8z M763.3,52.4c2.7,0,4.9,1,6.7,2.9
		c1.8,2,2.8,4.3,3,7.1V117c0,2.8-0.9,5.1-2.6,6.9c-1.7,1.9-4.1,2.9-7.1,3.1c-2.7,0-4.9-0.8-6.8-2.5c-1.8-1.6-3-4-3.4-6.9V61.8
		c0.2-2.7,1.3-4.9,3.2-6.6C758.3,53.5,760.7,52.5,763.3,52.4z"/>
	<path class="st0" d="M818.8,52.1c4.6,0.5,9,1.9,13,4c4.1,2.2,7.6,4.9,10.5,8.2c2.9,3.3,5.2,7.1,6.9,11.4c1.7,4.3,2.5,8.8,2.5,13.5
		v27.3c0,2.8-1,5.1-3.1,7.1c-2.1,2-4.4,2.9-6.9,2.9c-3.6,0-6.5-1.6-8.6-4.9c-0.5,0.2-1,0.4-1.4,0.7c-0.4,0.3-0.8,0.5-1.2,0.7
		c-2.5,1.1-5,2-7.6,2.6c-2.7,0.6-5.5,0.9-8.5,0.9c-7.7,0-14.6-2.1-20.7-6.2c-6.1-4.2-10.6-9.5-13.6-16.1c-1-2.4-1.8-4.8-2.4-7.2
		c-0.6-2.5-0.8-5-0.8-7.7c0-2.7,0.3-5.2,0.8-7.7c0.6-2.5,1.4-4.9,2.4-7.2c3-6.7,7.5-12.1,13.6-16.2c6.1-4.1,13-6.2,20.7-6.2
		c0.8,0,1.6,0,2.2,0C817.4,52,818,52,818.8,52.1z M814.3,106.6c2.4,0,4.6-0.4,6.7-1.3c2.1-0.9,3.9-2.1,5.5-3.6s2.8-3.4,3.7-5.5
		c0.9-2.1,1.4-4.4,1.4-6.9c0-2.3-0.5-4.4-1.4-6.6c-0.9-2.1-2.2-4-3.8-5.6c-1.6-1.6-3.4-2.9-5.6-3.8c-2.1-0.9-4.3-1.4-6.6-1.4
		c-2.3,0-4.4,0.5-6.5,1.4c-2.1,0.9-3.9,2.2-5.5,3.8c-1.6,1.6-2.9,3.4-3.8,5.6c-0.9,2.1-1.4,4.3-1.4,6.6c0,2.4,0.5,4.6,1.5,6.7
		c1,2.1,2.3,3.9,3.9,5.5c1.6,1.5,3.4,2.8,5.5,3.7C810,106.1,812.1,106.6,814.3,106.6z"/>
	<path class="st0" d="M893.3,52c10.3,0,19,3.6,26.2,10.8c1.7,2,2.5,4.3,2.4,6.9c-0.2,2.7-1.2,4.9-3,6.6c-1.9,1.7-4.2,2.7-7.1,2.8
		c-2.9,0.1-5.2-0.8-7.1-2.8c-3.2-2.9-7-4.3-11.4-4.3c-2.4,0-4.6,0.5-6.7,1.5c-2.1,1-4,2.3-5.6,3.9c-1.6,1.6-2.9,3.4-3.8,5.5
		c-0.9,2.1-1.4,4.2-1.4,6.5c0,2.4,0.5,4.6,1.4,6.7c0.9,2.1,2.2,4,3.9,5.6c1.6,1.6,3.5,2.9,5.6,3.8c2.1,0.9,4.3,1.3,6.6,1.2
		c4.5,0,8.3-1.4,11.4-4.2c1.9-2.1,4.2-3.1,7.1-3.1c2.9,0,5.2,1,7.1,3.1c0.9,0.8,1.6,1.8,2.2,2.9c0.5,1.1,0.8,2.3,0.8,3.5
		c0.1,1.2-0.1,2.4-0.5,3.6c-0.4,1.2-1,2.2-1.9,3.2c-3.6,3.6-7.6,6.3-11.9,8.2s-9.1,2.8-14.3,2.8c-5.1,0-10-1-14.5-3
		c-4.5-2-8.5-4.7-11.9-8.1c-3.4-3.4-6.1-7.3-8.1-11.9c-2-4.5-3-9.3-3-14.3c0-4.9,1-9.7,3-14.2c2-4.5,4.7-8.5,8.2-11.9
		c3.4-3.4,7.4-6.1,12-8.2C883.4,53,888.2,52,893.3,52z"/>
	<g>
		<path class="st0" d="M947.3,117.4c0,5.6-4.4,10-10.1,10c-5.6,0-10.1-4.4-10.1-10c0-5.5,4.5-9.8,10.1-9.8
			C942.9,107.6,947.3,111.9,947.3,117.4z M929.6,117.4c0,4.4,3.2,7.9,7.7,7.9c4.3,0,7.5-3.5,7.5-7.8c0-4.4-3.2-7.9-7.6-7.9
			S929.6,113.1,929.6,117.4z M935.6,122.6h-2.3v-9.8c0.9-0.2,2.2-0.3,3.8-0.3c1.9,0,2.7,0.3,3.4,0.7c0.5,0.4,1,1.2,1,2.2
			c0,1.1-0.8,1.9-2,2.3v0.1c1,0.4,1.5,1.1,1.8,2.4c0.3,1.5,0.5,2.1,0.7,2.5h-2.5c-0.3-0.4-0.5-1.3-0.8-2.4c-0.2-1.1-0.8-1.6-2-1.6
			h-1.1V122.6z M935.7,117h1.1c1.3,0,2.3-0.4,2.3-1.4c0-0.9-0.7-1.5-2.1-1.5c-0.6,0-1,0.1-1.3,0.1V117z"/>
	</g>
</g>
</svg>
